<svg xmlns="http://www.w3.org/2000/svg" viewBox="0 0 534 534"><defs><style>.cls-1{fill:#4a4a4a;}</style></defs><title>Asset 10</title><g id="Layer_2" data-name="Layer 2"><g id="Layer_1-2" data-name="Layer 1"><path class="cls-1" d="M383.67,0H150.33C67.65,0,0,67.65,0,150.33V383.67C0,466.35,67.65,534,150.33,534H383.67C466.35,534,534,466.35,534,383.67V150.33C534,67.65,466.35,0,383.67,0ZM486.61,380.89c0,58.15-47.57,105.72-105.72,105.72H153.11C95,486.61,47.39,439,47.39,380.89V153.11C47.39,95,95,47.39,153.11,47.39H380.89C439,47.39,486.61,95,486.61,153.11Z"/><path class="cls-1" d="M267,130A137,137,0,1,0,404,267,137,137,0,0,0,267,130Zm0,225.72A88.68,88.68,0,1,1,355.68,267,88.68,88.68,0,0,1,267,355.68Z"/><path class="cls-1" d="M440.64,123.64a31.16,31.16,0,1,1-31.15-31.15A31.14,31.14,0,0,1,440.64,123.64Z"/></g></g></svg>