<?xml version="1.0" standalone="no"?>
<!DOCTYPE svg PUBLIC "-//W3C//DTD SVG 20010904//EN"
 "http://www.w3.org/TR/2001/REC-SVG-20010904/DTD/svg10.dtd">
<svg version="1.0" xmlns="http://www.w3.org/2000/svg"
 width="386.000000pt" height="386.000000pt" viewBox="0 0 386.000000 386.000000"
 preserveAspectRatio="xMidYMid meet">
<metadata>
Created by potrace 1.11, written by Peter Selinger 2001-2013
</metadata>
<g transform="translate(0.000000,386.000000) scale(0.100000,-0.100000)"
fill="#000000" stroke="none">
<path d="M3720 3573 c-63 -25 -128 -51 -145 -58 -31 -13 -114 -45 -1060 -415
-297 -115 -549 -214 -560 -219 -11 -5 -380 -150 -820 -321 -440 -172 -875
-342 -967 -378 -143 -56 -165 -67 -150 -77 32 -23 547 -338 762 -468 234 -140
245 -148 267 -190 24 -47 23 -38 38 -447 3 -85 8 -180 10 -210 2 -30 7 -125
11 -210 4 -85 8 -171 9 -190 2 -19 3 -59 4 -87 1 -29 4 -53 9 -53 4 1 18 16
32 34 14 18 39 50 57 72 18 21 78 95 134 164 56 69 116 143 134 165 18 22 75
91 125 153 51 62 98 112 106 110 12 -3 102 -71 592 -451 69 -54 132 -96 139
-95 8 2 93 185 189 408 96 223 181 419 189 435 13 29 499 1149 595 1370 26 61
133 308 239 551 105 242 191 443 191 447 0 11 -9 8 -130 -40z m-180 -322 c0
-4 -56 -138 -125 -296 -69 -158 -125 -289 -125 -291 0 -2 -12 -29 -26 -61 -44
-96 -74 -165 -114 -258 -4 -11 -15 -36 -23 -55 -9 -19 -41 -93 -72 -165 -31
-71 -63 -143 -70 -160 -8 -16 -142 -327 -299 -689 -157 -362 -288 -661 -290
-663 -3 -4 -637 484 -808 620 -15 12 -99 78 -187 146 -89 68 -161 127 -161
130 1 3 343 267 761 586 419 319 766 585 772 590 7 6 55 43 107 83 52 39 108
81 123 93 192 149 524 399 530 399 4 0 7 -4 7 -9z m-290 -25 c0 -4 -228 -182
-445 -346 -123 -93 -473 -362 -810 -620 -33 -25 -214 -165 -403 -310 -415
-322 -421 -325 -483 -324 -54 1 -58 2 -507 282 -155 97 -279 179 -275 183 5 3
316 127 693 274 377 147 759 297 850 332 91 36 257 101 370 145 371 145 502
196 745 292 221 87 265 103 265 92z m-1660 -2181 c0 -6 -10 -21 -22 -35 -30
-32 -255 -312 -288 -356 -14 -18 -28 -34 -32 -34 -5 0 -8 24 -9 53 0 28 -2 72
-4 97 -2 25 -6 113 -9 195 -3 83 -9 203 -12 268 l-6 118 191 -148 c104 -81
190 -153 191 -158z"/>
</g>
</svg>
