<svg id="Layer_1" data-name="Layer 1" xmlns="http://www.w3.org/2000/svg" viewBox="0 0 928.89 420.03"><defs><style>.cls-1{fill:#231f20;}</style></defs><title>__hi CHARMAP 1</title><path class="cls-1" d="M35.78,145.55V33.2H27.16V24.55H53.07V33.2H44.44V145.55Z" transform="translate(-27.16 -24.55)"/><path class="cls-1" d="M59.56,145.55v-121h8.63V67.77h8.66V24.55h8.62v121H76.85V76.42H68.19v69.13Z" transform="translate(-27.16 -24.55)"/><path class="cls-1" d="M92,145.55v-121h25.91V33.2H100.6V67.77h17.28v8.65H100.6v60.5h17.28v8.63Z" transform="translate(-27.16 -24.55)"/><path class="cls-1" d="M158.94,154.17l-17.28-17.25V33.2l8.63-8.65h8.65l8.63,8.65V136.92l-8.63,8.63h8.63v8.62Zm0-17.25V33.2h-8.65V136.92Z" transform="translate(-27.16 -24.55)"/><path class="cls-1" d="M182.69,145.55l-8.62-8.63V24.55h8.62V136.92h8.66V24.55H200V136.92l-8.62,8.63Z" transform="translate(-27.16 -24.55)"/><path class="cls-1" d="M206.47,145.55v-121h8.63v121Z" transform="translate(-27.16 -24.55)"/><path class="cls-1" d="M230.22,145.55l-8.62-8.63V33.2l8.62-8.65h8.66l8.62,8.65V50.48h-8.62V33.2h-8.66V136.92h8.66V119.64h8.62v17.28l-8.62,8.63Z" transform="translate(-27.16 -24.55)"/><path class="cls-1" d="M254,145.55v-121h8.63V67.77h8.66V24.55h8.62V67.77h0l-4.28,4.34,4.31,4.31v69.13h-8.62V76.42h-8.66v69.13Z" transform="translate(-27.16 -24.55)"/><path class="cls-1" d="M303.69,145.55v-121H321l8.63,8.65V67.77h0l-4.28,4.34,4.31,4.31v60.5L321,145.55ZM321,67.77V33.2h-8.65V67.77Zm0,69.15V76.42h-8.65v60.5Z" transform="translate(-27.16 -24.55)"/><path class="cls-1" d="M336.1,145.55v-121h17.28L362,33.2V67.77h0l-4.29,4.34L362,76.42v69.13h-8.63V76.42h-8.66v69.13Zm17.28-77.78V33.2h-8.66V67.77Z" transform="translate(-27.16 -24.55)"/><path class="cls-1" d="M377.13,145.55l-8.62-8.63V33.2l8.62-8.65h8.66l8.62,8.65V136.92l-8.62,8.63Zm8.66-8.63V33.2h-8.66V136.92Z" transform="translate(-27.16 -24.55)"/><path class="cls-1" d="M409.54,145.55l-8.63-8.63V24.55h8.63V136.92h8.65V24.55h8.63V136.92h8.65V24.55h8.63V136.92l-8.63,8.63h-8.65v0l-4.31-4.29-4.32,4.32Z" transform="translate(-27.16 -24.55)"/><path class="cls-1" d="M450.6,145.55V33.2l8.63-8.65h8.65l8.63,8.65V145.55h-8.63V33.2h-8.65V145.55Z" transform="translate(-27.16 -24.55)"/><path class="cls-1" d="M500.29,145.55v-121h25.9V33.2H508.91V67.77h17.28v8.65H508.91v69.13Z" transform="translate(-27.16 -24.55)"/><path class="cls-1" d="M541.32,145.55l-8.63-8.63V33.2l8.63-8.65H550l8.62,8.65V136.92L550,145.55Zm8.66-8.63V33.2h-8.66V136.92Z" transform="translate(-27.16 -24.55)"/><path class="cls-1" d="M565.1,145.55V76.42h0l4.28-4.31-4.31-4.34V24.55h8.63V67.82L578,72.11l-4.28,4.31h0v69.13Zm17.28,0V76.39L578,72.11l4.28-4.34h.06V24.55H591V67.77h0l-4.28,4.34L591,76.42v69.13Z" transform="translate(-27.16 -24.55)"/><path class="cls-1" d="M623.41,145.55l-8.62-8.63V119.64h8.62v17.28h8.66V33.2H614.79V24.55H640.7V136.92l-8.63,8.63Z" transform="translate(-27.16 -24.55)"/><path class="cls-1" d="M655.82,145.55l-8.63-8.63V24.55h8.63V136.92h8.66V24.55h8.62V136.92l-8.62,8.63Z" transform="translate(-27.16 -24.55)"/><path class="cls-1" d="M679.6,145.55V33.2l8.63-8.65h8.65v.06l4.32,4.28,4.31-4.34h8.65l8.63,8.65V145.55h-8.63V33.2h-8.65V145.55h-8.63V33.2h-8.65V145.55Z" transform="translate(-27.16 -24.55)"/><path class="cls-1" d="M729.29,145.55v-121h17.28l8.63,8.65V67.77l-8.63,8.65h-8.65v69.13Zm17.28-77.78V33.2h-8.65V67.77Z" transform="translate(-27.16 -24.55)"/><path class="cls-1" d="M761.7,145.55v-121h25.9V33.2H770.32V67.77H787.6v8.65H770.32v60.5H787.6v8.63Z" transform="translate(-27.16 -24.55)"/><path class="cls-1" d="M794.1,145.55v-121h17.28L820,33.2V136.92l-8.63,8.63Zm17.28-8.63V33.2h-8.65V136.92Z" transform="translate(-27.16 -24.55)"/><path class="cls-1" d="M35.78,290.75l-8.62-8.63V178.4l8.62-8.65h8.66l8.63,8.65V282.12l-8.63,8.63Zm8.66-8.63V178.4H35.78V282.12Z" transform="translate(-27.16 -24.55)"/><path class="cls-1" d="M59.56,290.75v-121h8.63V282.12h8.66V169.75h8.62V282.12l-8.62,8.63Z" transform="translate(-27.16 -24.55)"/><path class="cls-1" d="M92,290.75v-121h25.91v8.65H100.6V213h17.28v8.65H100.6v60.5h17.28v8.63Z" transform="translate(-27.16 -24.55)"/><path class="cls-1" d="M124.38,290.75v-121h17.28l8.63,8.65V213h0L146,217.31l4.32,4.31v69.13h-8.63V221.62H133v69.13ZM141.66,213V178.4H133V213Z" transform="translate(-27.16 -24.55)"/><path class="cls-1" d="M182.69,290.75V178.4h-8.62v-8.65H200v8.65h-8.62V290.75Z" transform="translate(-27.16 -24.55)"/><path class="cls-1" d="M206.47,290.75v-121h8.63V213h8.65V169.75h8.63v121h-8.63V221.62H215.1v69.13Z" transform="translate(-27.16 -24.55)"/><path class="cls-1" d="M238.88,290.75v-121h25.91v8.65H247.51V213h17.28v8.65H247.51v60.5h17.28v8.63Z" transform="translate(-27.16 -24.55)"/><path class="cls-1" d="M288.57,290.75v-121h8.62V282.12h17.28v8.63Z" transform="translate(-27.16 -24.55)"/><path class="cls-1" d="M321,290.75V178.4l8.63-8.65h8.65l8.63,8.65V290.75h-8.63V221.62H329.6v69.13ZM338.25,213V178.4H329.6V213Z" transform="translate(-27.16 -24.55)"/><path class="cls-1" d="M370.66,178.4H353.38v-8.65h25.91V213l-8.63,8.65ZM353.38,290.75V221.62L362,213v69.15h17.28v8.63Z" transform="translate(-27.16 -24.55)"/><path class="cls-1" d="M394.41,290.75V221.62L385.79,213V169.75h8.62V213l4.32,4.29,4.34-4.34V169.75h8.62V213l-8.62,8.65v69.13Z" transform="translate(-27.16 -24.55)"/><path class="cls-1" d="M435.47,290.75v-121h17.29l8.62,8.65V282.12l-8.62,8.63Zm17.29-8.63V178.4H444.1V282.12Z" transform="translate(-27.16 -24.55)"/><path class="cls-1" d="M476.51,290.75l-8.63-8.63V178.4l8.63-8.65h8.65l8.63,8.65V282.12l-8.63,8.63Zm8.65-8.63V178.4h-8.65V282.12Z" transform="translate(-27.16 -24.55)"/><path class="cls-1" d="M508.91,290.75l-8.62-8.63V178.4l8.62-8.65h8.66l8.62,8.65v17.28h-8.62V178.4h-8.66V282.12h8.66V213h8.62v69.15l-8.62,8.63Z" transform="translate(-27.16 -24.55)"/><path class="cls-1" d="M35.78,436V323.6H27.16V315H44.44V436Z" transform="translate(-27.16 -24.55)"/><path class="cls-1" d="M68.19,323.6H59.54v17.28H50.91V315H76.82v43.22l-8.63,8.65ZM50.91,436V366.82l8.63-8.65v69.15H76.82V436Z" transform="translate(-27.16 -24.55)"/><path class="cls-1" d="M91.94,436l-8.62-8.63V410h8.62v17.28h8.66v-60.5H91.94l-4.31-4.31,4.31-4.34h8.66V323.6H91.94v17.28H83.32V323.6L91.94,315h8.66l8.62,8.65v34.57h0l-4.28,4.34,4.31,4.31v60.5L100.6,436Z" transform="translate(-27.16 -24.55)"/><path class="cls-1" d="M133,436V366.82h-8.65l-8.63-8.65V315h8.63v43.22H133V315h8.63V436Z" transform="translate(-27.16 -24.55)"/><path class="cls-1" d="M156.76,436l-8.63-8.63V410h8.63v17.28h8.65v-60.5H148.13V315H174v8.65H156.76v34.57h8.65l8.63,8.65v60.5L165.41,436Z" transform="translate(-27.16 -24.55)"/><path class="cls-1" d="M189.16,436l-8.62-8.63V323.6l8.62-8.65h8.66l8.62,8.65v17.28h-8.62V323.6h-8.66v34.57h8.66l8.62,8.65v60.5L197.82,436Zm8.66-8.63v-60.5h-8.66v60.5Z" transform="translate(-27.16 -24.55)"/><path class="cls-1" d="M230.22,323.6H212.94V315h25.91v43.22l-8.63,8.65ZM212.94,436V366.82l8.63-8.65V436Z" transform="translate(-27.16 -24.55)"/><path class="cls-1" d="M254,436l-8.62-8.63v-60.5h0l4.28-4.31-4.31-4.34V323.6L254,315h8.66l8.63,8.65v34.57h0l-4.29,4.34,4.32,4.31v60.5L262.63,436Zm8.66-77.78V323.6H254v34.57Zm0,69.15v-60.5H254v60.5Z" transform="translate(-27.16 -24.55)"/><path class="cls-1" d="M286.38,436l-8.62-8.63V410h8.62v17.28H295v-60.5h-8.66l-8.62-8.65V323.6l8.62-8.65H295l8.62,8.65V427.32L295,436ZM295,358.17V323.6h-8.66v34.57Z" transform="translate(-27.16 -24.55)"/><path class="cls-1" d="M310.16,323.6l8.63-8.65h8.65l8.63,8.65v25.94l-8.63,8.63V323.6h-8.65v43.22l-8.63,8.63ZM318.79,436l-8.63-8.63V384.1l8.63-8.65v51.87h8.65v-60.5l8.63-8.65v69.15L327.44,436Z" transform="translate(-27.16 -24.55)"/><path class="cls-1" d="M342.57,418.67V315h8.62V418.67Zm0,17.28v-8.63h8.62V436Z" transform="translate(-27.16 -24.55)"/><path class="cls-1" d="M375,323.6h-8.65v17.28h-8.63V323.6l8.63-8.65H375l8.63,8.65v34.57L375,366.82Zm-17.28,95.07V366.82l8.63-8.65v60.5Zm0,17.28v-8.63h8.63V436Z" transform="translate(-27.16 -24.55)"/><path class="cls-1" d="M398.73,436l-8.63-8.63V323.6l8.63-8.65h25.93l8.63,8.65v43.22h-8.63v-8.65H416v8.65h-8.63V340.88l8.63-8.62h8.65V323.6H398.73V427.32h25.93V410h8.63v17.28L424.66,436Zm25.93-86.41v-8.66H416v8.66Z" transform="translate(-27.16 -24.55)"/><path class="cls-1" d="M448.41,375.45h-8.62l8.62-8.63v-8.65h-8.62l8.62-8.63V323.6l8.66-8.65v34.59h8.62V323.6l8.66-8.65v34.59H483l-8.63,8.63v8.65H483l-8.63,8.63v51.87L465.69,436v-60.5h-8.62v51.87L448.41,436Zm17.28-8.63v-8.65h-8.62v8.65Z" transform="translate(-27.16 -24.55)"/><path class="cls-1" d="M498.1,444.57V436l-8.62-8.63V410h8.62v17.28h8.66v-60.5H498.1l-8.62-8.65V323.6L498.1,315v-8.63h8.66V315l8.62,8.65v17.28h-8.62V323.6H498.1v34.57h8.66l8.62,8.65v60.5L506.76,436v8.62Z" transform="translate(-27.16 -24.55)"/><path class="cls-1" d="M521.88,323.6l8.63-8.65,8.65,8.65-8.65,8.66ZM530.51,436V366.82l8.65-8.65V436Zm17.28-121h8.65v43.22l-8.65,8.65Zm0,112.37,8.65-8.65,8.63,8.65L556.44,436Z" transform="translate(-27.16 -24.55)"/><path class="cls-1" d="M571.57,323.6,580.2,315l8.65,8.65v8.66l-8.65-8.66-8.63,8.66Z" transform="translate(-27.16 -24.55)"/><path class="cls-1" d="M604,436l-8.63-8.63v-60.5h0l4.28-4.31-4.31-4.34V323.6L604,315h17.28l8.65,8.65v17.28h-8.65V323.6H604v34.57h8.65v8.65H604v60.5h17.28V410H612.6v-8.66h25.91V410h-8.63v17.28L621.23,436Z" transform="translate(-27.16 -24.55)"/><path class="cls-1" d="M645,332.26h0l4.28-4.34L645,323.6V315l8.63,8.65,8.65-8.65v8.65h-.06L658,327.92l4.34,4.34v8.62l-8.65-8.62L645,340.88Z" transform="translate(-27.16 -24.55)"/><path class="cls-1" d="M677.39,436l-8.63-8.63V323.6l8.63-8.65H686v8.65h-8.65V427.32H686V436Z" transform="translate(-27.16 -24.55)"/><path class="cls-1" d="M692.51,436v-8.63h8.63V323.6h-8.63V315h8.63l8.65,8.65V427.32L701.14,436Z" transform="translate(-27.16 -24.55)"/><path class="cls-1" d="M716.26,366.82v-8.65h17.28v8.65Z" transform="translate(-27.16 -24.55)"/><path class="cls-1" d="M748.64,375.45v-8.63H740v-8.65h8.63v-8.63h8.65v8.63h8.63v8.65h-8.63v8.63Z" transform="translate(-27.16 -24.55)"/><path class="cls-1" d="M772.42,358.17v-8.63h25.91v8.63Zm0,17.28v-8.63h25.91v8.63Z" transform="translate(-27.16 -24.55)"/><path class="cls-1" d="M804.83,444.57V436h25.9v8.62Z" transform="translate(-27.16 -24.55)"/><path class="cls-1" d="M837.23,436v-8.63h8.63v17.25Z" transform="translate(-27.16 -24.55)"/><path class="cls-1" d="M852.36,436v-8.63H861V436Z" transform="translate(-27.16 -24.55)"/><path class="cls-1" d="M867.48,358.17v-8.63h8.63v8.63Zm0,8.65h8.63v8.63l-8.63,8.65Z" transform="translate(-27.16 -24.55)"/><path class="cls-1" d="M882.61,358.17v-8.63h8.62v8.63Zm0,17.28v-8.63h8.62v8.63Z" transform="translate(-27.16 -24.55)"/><path class="cls-1" d="M897.73,323.6V315h8.63v17.31Z" transform="translate(-27.16 -24.55)"/><path class="cls-1" d="M930.14,323.6V315h8.63v17.31Zm17.28,0V315h8.63v17.31Z" transform="translate(-27.16 -24.55)"/></svg>