<svg xmlns="http://www.w3.org/2000/svg" viewBox="0 0 300.83 117.75"><defs><style>.cls-1{fill:#4a4a4a;}</style></defs><title>Asset 6</title><g id="Layer_2" data-name="Layer 2"><g id="Layer_1-2" data-name="Layer 1"><path class="cls-1" d="M246.47.26a.94.94,0,0,0-1.11-.14L186.18,33.67a.94.94,0,0,0-.44,1.08,1,1,0,0,0,.91.7h0a68.12,68.12,0,0,1,16.08,1.81l.15,0a.94.94,0,0,0,.55,0l.14-.06.13-.08s.08-.07.11-.11q6.63-6.39,13.73-12.29c2.37-2,4.78-3.89,7.24-5.74,1.43-1.08,2.88-2.15,4.35-3.19-2.53,2.76-5.05,5.52-7.54,8.31-1.67,1.88-3.34,3.76-5,5.69-.81,1-1.61,1.92-2.39,2.92a34.79,34.79,0,0,0-2.21,3.05,34.8,34.8,0,0,1,2.29-3c.8-1,1.64-1.91,2.47-2.84,1.68-1.88,3.39-3.71,5.12-5.54,3.45-3.66,6.95-7.26,10.46-10.87a.43.43,0,0,0-.54-.65h0q-3.92,2.49-7.7,5.2c-2.53,1.8-5,3.67-7.45,5.57q-7.11,5.56-13.81,11.66a65,65,0,0,0-12.73-1.72L243.64,3.28c-3.7,7.72-14.1,29.82-17.85,42.22a41.64,41.64,0,0,0-14.51-7.24l-.25-.07a1,1,0,0,0-1.1.52s-.07.18-.07.18a38,38,0,0,1-1,3.94c-.4,1.3-.86,2.59-1.37,3.87a51.23,51.23,0,0,1-2.76,5.92c0-1.87.07-3.74,0-5.62a32.09,32.09,0,0,0-.32-3.66,12.64,12.64,0,0,0-1-3.52,12.4,12.4,0,0,1,.82,3.54,29.5,29.5,0,0,1,.09,3.64c-.07,2.44-.31,4.86-.47,7.31a.42.42,0,0,0,.19.39.44.44,0,0,0,.61-.12v0a51.62,51.62,0,0,0,4.14-7.31c.59-1.28,1.14-2.57,1.64-3.89.38-1,.73-2,1-3.08a40.62,40.62,0,0,1,14.27,7.57.91.91,0,0,0,.88.16.94.94,0,0,0,.63-.65c4-14.44,19.29-45.68,19.44-46A.93.93,0,0,0,246.47.26Z"/><path class="cls-1" d="M0,116.21l2.38-.48c1.14-.22,1.19-.31,1.19-.93V98.12c0-.57-.09-.71-1.06-.93L0,96.67V95.52H14.61a18.64,18.64,0,0,0,4.1-.39l.7,7H18.22A15.28,15.28,0,0,0,16.46,98a12.77,12.77,0,0,0-5.28-1h-.61a15.55,15.55,0,0,0-2.87.17v8.41H12A5.71,5.71,0,0,0,14,102.48h.84v8.27H14a8.06,8.06,0,0,0-1.89-3.56H7.7v7.53c0,.61.22.7,1.24.87l3.3.62v1.15H0Z"/><path class="cls-1" d="M27.6,116.21l2.37-.48c1.15-.22,1.19-.31,1.19-.93V98.12c0-.57-.09-.71-1.14-.93l-2.42-.52V95.52h12v1.15l-3.08.74c-1,.22-1.19.31-1.19.89v17.29a13.21,13.21,0,0,0,3.61.31h.39a13.06,13.06,0,0,0,4.89-1.1c1.1-1.32,2-4.58,2.38-5.9h1.32l-1.28,8.46h-19Z"/><path class="cls-1" d="M57.79,116.17l3.17-.66c1.14-.22,1.19-.27,1.19-.88v-6.34l-7.22-10a2.75,2.75,0,0,0-1.37-1.06l-1.36-.35V95.52H62v1.32l-1.63.4c-1,.22-1.23.31-.66,1.06L65.23,106l5.33-7.74c.52-.8,0-.84-1.28-1.15l-1.37-.31V95.52H76V96.8l-1.23.26A2.83,2.83,0,0,0,73,98.3l-6.7,9.33v7c0,.61,0,.66,1.15.88l3.17.66v1.19H57.79Z"/><path class="cls-1" d="M97.75,98.25c-.26-.75-.83-.92-1.54-1.19L95,96.67V95.52H105.1v1.19l-1.8.4c-1,.17-1.41.3-1.19.92l5.33,14.66,5.41-12.94-.7-1.54c-.27-.8-.93-1-1.54-1.15l-1.28-.39V95.52H119v1.19l-1.76.44c-1,.22-1,.53-.75,1.1l5.82,14.26,5.32-14.21c.27-.75,0-1-1.32-1.24l-1.85-.35V95.52h8.23v1.19l-1.18.35a1.84,1.84,0,0,0-1.41,1.19l-8.06,19.5h-1.71L114,102.43l-7,15.32h-1.8Z"/><path class="cls-1" d="M139.39,116.21l2.37-.48c1.15-.22,1.19-.31,1.19-.93V98.12c0-.57-.09-.71-1.14-.93l-2.42-.52V95.52h11v1.15l-2.11.52c-1.06.31-1.19.36-1.19.93V114.8c0,.62.09.71,1.15.93l2.15.48v1.15h-11Z"/><path class="cls-1" d="M163.2,116.17l3-.66c1.14-.31,1.19-.31,1.19-.88V97h-1.68a10.44,10.44,0,0,0-4.71.84,19.48,19.48,0,0,0-1.89,5.06H158l.23-7.79a12.5,12.5,0,0,0,3.56.44h15.63a11.9,11.9,0,0,0,3.17-.44l.26,7.79h-1.1a20.29,20.29,0,0,0-1.89-5A8,8,0,0,0,173.5,97h-2.07v17.66c0,.57.09.61,1.19.88l3,.66v1.19H163.2Z"/><path class="cls-1" d="M188.46,116.21l2.38-.48c1.14-.22,1.19-.31,1.19-.93V98.12c0-.57-.09-.71-1.15-.93l-2.42-.52V95.52h11v1.15l-2.12.52c-1,.31-1.19.36-1.19.93v7h12.42v-7c0-.57-.13-.62-1.15-.93l-2.2-.52V95.52h11v1.15l-2.38.52c-1.1.22-1.23.36-1.23.93V114.8c0,.62.09.71,1.14.93l2.47.48v1.15h-11v-1.15l2.16-.48c1.1-.27,1.19-.31,1.19-.93V107H196.16v7.83c0,.62.09.71,1.15.93l2.16.48v1.15h-11Z"/><path class="cls-1" d="M238.81,116.21l2.91-.44c.57-.09.7-.66.79-1.28a34.79,34.79,0,0,0,.22-4.13V98.16c0-.57-.18-.61-1.15-.83l-2.24-.53V95.52h7.4l8.54,15.89,8.54-15.89h7.7v1.15l-2.47.61c-.83.22-1.05.27-1.05.84v16.64c0,.61.09.7,1.14.92l2.51.53v1.15H260.51v-1.15l2.25-.53c1.1-.31,1.14-.31,1.14-.92V99.4l-9.59,17.91h-.22l-9.38-17.21v10.21c0,2,.13,3.26.18,4.1,0,.61.13,1.18.7,1.27l3,.53v1.15h-9.77Z"/><path class="cls-1" d="M280.54,116.21l2.37-.48c1.15-.22,1.19-.31,1.19-.93V98.12c0-.57-.09-.71-1.14-.93l-2.42-.52V95.52H296a13.19,13.19,0,0,0,3.08-.39l.71,7h-1a11.64,11.64,0,0,0-1.8-4.05,15,15,0,0,0-5.77-1H291a17.76,17.76,0,0,0-2.73.22v8h4.31a5.06,5.06,0,0,0,2.07-3.26h.75v8.23h-.75a5.24,5.24,0,0,0-2.07-3.39h-4.31v8.81a23.2,23.2,0,0,0,3.3.26h.84c1.49,0,4.14-.31,5.24-1.05a14.66,14.66,0,0,0,2.2-4.54h1l-1.06,7H280.54Z"/></g></g></svg>